<?xml version="1.0" encoding="UTF-8"?>
<svg width="1200pt" height="1200pt" version="1.1" viewBox="0 0 1200 1200" xmlns="http://www.w3.org/2000/svg">
 <path d="m596.81 570.52c68.156-78.094 140.9-199.22 149.26-303.56 6.1875-77.906-28.312-129.19-75.797-153.89-45-23.25-101.86-23.25-146.76 0-47.578 24.703-82.031 75.938-75.844 153.89 8.25 104.3 81 225.52 149.16 303.56zm81.656 330.32c37.547-15.094 37.547-32.297 0-47.344-44.625-17.906-118.69-17.906-163.31 0-37.547 15.094-37.547 32.297 0 47.344 44.719 17.906 118.59 17.906 163.31 0zm8.7188 21.656c-50.344 20.25-130.36 20.25-180.71 0-57.375-23.062-57.375-67.688 0-90.75 50.344-20.203 130.36-20.203 180.71 0 57.375 23.062 57.375 67.688 0 90.75zm-277.6 155.06c-15.469 0-15.469-23.438 0-23.438h374.53c15.422 0 15.422 23.438 0 23.438zm66.422-396.89c10.219-11.344 27.562 4.2188 17.25 15.609l-72.656 80.344c-10.219 11.344-27.562-4.3125-17.25-15.656zm224.29 15.609c-10.266-11.344 7.0312-27 17.344-15.609l72.609 80.25c10.266 11.344-7.0312 27.047-17.25 15.656zm-474.42-9.375c-54.562 0-81.984 66.234-43.406 104.81 38.531 38.531 104.77 11.109 104.77-43.453 0-33.844-27.375-61.359-61.359-61.359zm-60 1.4062c33.141-33.141 86.812-33.141 120 0 33.188 33.188 33.188 86.812 0 120-33.141 33.188-86.812 33.188-120 0-33.141-33.188-33.141-86.859 0-120zm-42.188 426.1c-64.031-25.688-64.031-74.625 0-100.31 12.094-4.8281 26.25-8.8125 41.906-11.766-46.359-65.953-89.203-151.31-95.297-228.66-6.375-80.156 29.906-133.22 79.781-159.1 46.688-24.188 105-24.188 151.6 0 49.875 25.922 86.25 78.984 79.875 159.1-6.1875 77.344-49.031 162.71-95.344 228.66 36.141 6.75 89.812 25.406 89.812 61.922 0 20.578-18.328 38.25-47.906 50.156-57 22.969-147.42 22.969-204.42 0zm57.328-90.938c-18.562 2.625-35.156 6.9375-48.703 12.375-44.062 17.719-44.062 39.188 0 56.859 51.234 20.578 135.84 20.578 187.08 0 44.109-17.672 44.109-39.141 0-56.859-13.547-5.4375-30.094-9.7031-48.703-12.375-11.812 15.609-24 30.234-36.188 43.641-4.5938 5.1094-12.656 5.1562-17.344-0.09375-12.234-13.359-24.328-27.984-36.141-43.547zm-44.906-115.31c24.469 48.656 56.672 95.438 89.766 133.55 60.469-69.656 124.87-177.19 132.28-269.86 5.5312-69.188-25.031-114.61-67.172-136.45-39.891-20.672-90.328-20.672-130.22 0-42.094 21.844-72.656 67.312-67.172 136.45 3.4688 43.219 19.547 90.562 42.516 136.31zm831.61-244.69c46.828 0 84.844 37.969 84.844 84.844 0 46.828-37.969 84.844-84.844 84.844-46.828 0-84.844-37.969-84.844-84.844 0-46.828 38.016-84.844 84.844-84.844zm43.453 41.438c-38.625-38.625-104.81-11.156-104.81 43.406 0 54.516 66.234 81.984 104.81 43.453 24-24 24-62.859 0-86.859zm-43.453 403.22c36.75 0 69.844-5.8594 93.516-15.422 44.109-17.672 44.109-39.141 0-56.859-13.547-5.4375-30.094-9.7031-48.703-12.375-6.8438 9.0938-30.75 38.812-36.938 44.438-4.7812 4.3125-12.234 3.9844-16.547-0.79688-12.234-13.406-24.375-28.031-36.188-43.641-18.562 2.625-35.156 6.9375-48.703 12.375-44.062 17.719-44.062 39.188 0 56.859 23.719 9.5625 56.812 15.422 93.562 15.422zm60.328-105.75c36.141 6.75 89.812 25.406 89.812 61.922 0 20.578-18.328 38.25-47.906 50.156-56.906 22.875-147.56 22.875-204.47 0-63.984-25.688-63.984-74.625 0-100.31 12.188-4.8281 26.344-8.8125 41.906-11.766-46.312-66-89.156-151.31-95.25-228.66-6.375-80.156 29.906-133.22 79.781-159.1 46.641-24.188 105-24.188 151.6 0 49.875 25.922 86.203 78.984 79.875 159.1-6.1875 77.25-49.031 162.66-95.344 228.66zm-60.328 39.281c60.469-69.656 124.87-177.19 132.28-269.86 5.5312-69.188-25.031-114.61-67.172-136.45-39.891-20.672-90.328-20.672-130.22 0-42.094 21.844-72.656 67.312-67.172 136.45 7.3594 92.672 71.812 200.26 132.28 269.86zm-370.92-894.56c51.656 0 93.469 41.859 93.469 93.469 0 51.562-41.859 93.422-93.469 93.422-51.656 0-93.422-41.859-93.422-93.422 0-51.609 41.766-93.469 93.422-93.469zm49.5 43.969c-27.281-27.375-71.625-27.375-99 0-27.281 27.281-27.281 71.625 0 99 27.375 27.281 71.719 27.281 99 0 27.375-27.375 27.375-71.672 0-99zm55.5 435.74c50.484-20.25 50.484-45.938 0-66.188-15.422-6.1875-34.359-11.062-55.547-13.969-7.6875 10.172-34.594 43.688-41.578 50.062-4.7812 4.3125-12.234 3.9844-16.547-0.79688-13.781-15.141-27.516-31.688-40.875-49.312-21.188 2.9062-40.125 7.7812-55.547 13.969-50.438 20.25-50.438 45.938 0 66.188 57.75 23.156 152.53 23.156 210.1 0.046875zm-39.938-101.34c18.188 3.2812 34.688 7.8281 48.703 13.5 70.359 28.219 70.359 81.281 0 109.5-63.281 25.453-164.16 25.453-227.48 0-70.312-28.219-70.312-81.281 0-109.5 14.016-5.625 30.469-10.219 48.703-13.5-52.125-73.875-100.59-169.87-107.48-256.64-7.125-88.875 33.141-147.74 88.406-176.48 51.75-26.812 116.44-26.812 168.19 0 55.266 28.688 95.531 87.562 88.406 176.48-6.8438 86.766-55.312 182.76-107.44 256.64z"/>
</svg>
