<?xml version="1.0" encoding="UTF-8" standalone="no"?>
<svg
   xmlns:dc="http://purl.org/dc/elements/1.1/"
   xmlns:cc="http://creativecommons.org/ns#"
   xmlns:rdf="http://www.w3.org/1999/02/22-rdf-syntax-ns#"
   xmlns:svg="http://www.w3.org/2000/svg"
   xmlns="http://www.w3.org/2000/svg"
   xmlns:sodipodi="http://sodipodi.sourceforge.net/DTD/sodipodi-0.dtd"
   xmlns:inkscape="http://www.inkscape.org/namespaces/inkscape"
   aria-hidden="true"
   focusable="false"
   data-prefix="fas"
   data-icon="fire-alt"
   class="svg-inline--fa fa-fire-alt fa-w-14"
   role="img"
   viewBox="0 0 448 512"
   version="1.1"
   id="svg67"
   sodipodi:docname="fire-alt-solid.svg"
   inkscape:version="0.92.3 (2405546, 2018-03-11)"
   inkscape:export-filename="/home/jaume/tesi/tesi-jaume-figueras/codi/qgis/gisfire/icons/gisfire/gisfire.png"
   inkscape:export-xdpi="95.671593"
   inkscape:export-ydpi="95.671593">
  <metadata
     id="metadata73">
    <rdf:RDF>
      <cc:Work
         rdf:about="">
        <dc:format>image/svg+xml</dc:format>
        <dc:type
           rdf:resource="http://purl.org/dc/dcmitype/StillImage" />
        <dc:title></dc:title>
      </cc:Work>
    </rdf:RDF>
  </metadata>
  <defs
     id="defs71" />
  <sodipodi:namedview
     pagecolor="#ffffff"
     bordercolor="#666666"
     borderopacity="1"
     objecttolerance="10"
     gridtolerance="10"
     guidetolerance="10"
     inkscape:pageopacity="0"
     inkscape:pageshadow="2"
     inkscape:window-width="1877"
     inkscape:window-height="1025"
     id="namedview69"
     showgrid="false"
     inkscape:zoom="1.6484375"
     inkscape:cx="224"
     inkscape:cy="256"
     inkscape:window-x="1963"
     inkscape:window-y="27"
     inkscape:window-maximized="1"
     inkscape:current-layer="svg67" />
  <path
     fill="currentColor"
     d="M323.56 51.2c-20.8 19.3-39.58 39.59-56.22 59.97C240.08 73.62 206.28 35.53 168 0 69.74 91.17 0 209.96 0 281.6 0 408.85 100.29 512 224 512s224-103.15 224-230.4c0-53.27-51.98-163.14-124.44-230.4zm-19.47 340.65C282.43 407.01 255.72 416 226.86 416 154.71 416 96 368.26 96 290.75c0-38.61 24.31-72.63 72.79-130.75 6.93 7.98 98.83 125.34 98.83 125.34l58.63-66.88c4.14 6.85 7.91 13.55 11.27 19.97 27.35 52.19 15.81 118.97-33.43 153.42z"
     id="path65" />
  <path
     style="opacity:1;fill:#ff0000;fill-opacity:1;stroke:#000000;stroke-width:2.29279399;stroke-linecap:butt;stroke-linejoin:miter;stroke-miterlimit:4;stroke-dasharray:none;stroke-opacity:1"
     d="M 209.28431,511.25869 C 137.80078,506.26917 72.826037,466.3865 34.70046,404.09596 12.463893,367.76529 0.60463354,326.06686 0.48305319,283.78389 0.44663161,271.11725 1.2943467,263.14136 4.0292384,250.41896 16.471126,192.5407 61.297659,115.38709 121.9145,47.51962 133.28887,34.784722 149.62438,17.787106 159.16243,8.76197 L 168.04595,0.35616804 178.7472,10.581875 c 28.45079,27.186511 59.69881,62.356553 82.11794,92.424765 3.10965,4.17061 5.83598,7.79093 6.0585,8.04515 0.22252,0.25422 4.9218,-4.79602 10.44283,-11.222746 12.25263,-14.262621 29.32647,-32.38753 39.1492,-41.559259 l 7.3064,-6.822158 9.93351,10.168934 c 32.78239,33.559313 60.88915,73.670919 83.03733,118.503909 20.05901,40.60402 30.9341,77.00823 30.9341,103.55141 0,22.83489 -4.43539,49.31586 -12.13582,72.45534 -11.50464,34.57103 -29.95428,64.42391 -55.78359,90.26198 -36.35619,36.36853 -81.6672,58.34726 -131.87175,63.96623 -10.13638,1.13448 -29.01739,1.57571 -38.65154,0.90326 z m 35.03722,-96.15337 c 22.39832,-2.89408 44.57727,-11.678 62.08624,-24.58911 6.72281,-4.95739 16.64388,-14.67206 21.94715,-21.49055 26.83892,-34.50721 31.40046,-85.07852 11.42206,-126.63037 -3.21141,-6.67921 -11.79904,-22.11031 -13.01201,-23.38125 -0.58427,-0.61221 -6.67467,6.0082 -29.74132,32.32954 -15.95363,18.20466 -29.22431,33.01934 -29.4904,32.92151 -0.26609,-0.0978 -17.74237,-22.15324 -38.83618,-49.01201 -46.5447,-59.26543 -59.25662,-75.22275 -59.9239,-75.22275 -0.58174,0 -16.91526,19.89123 -27.57426,33.5804 -25.95385,33.33208 -38.84669,56.59819 -43.540546,78.57222 -1.633528,7.64728 -2.195709,22.82441 -1.206172,32.56314 4.425648,43.55623 27.515758,77.71169 65.332748,96.64185 14.90706,7.46207 32.32272,12.42264 49.96103,14.23059 6.24743,0.64037 26.06378,0.32817 32.57556,-0.51321 z"
     id="path75"
     inkscape:connector-curvature="0" />
  <path
     style="opacity:1;fill:#ffd42a;fill-opacity:1;stroke:#000000;stroke-width:2.29279399;stroke-linecap:butt;stroke-linejoin:miter;stroke-miterlimit:4;stroke-dasharray:none;stroke-opacity:1"
     d="m 203.25308,413.04026 c -8.89404,-1.55726 -15.60702,-3.22768 -23.2569,-5.78712 -45.15394,-15.10726 -74.61816,-50.13352 -81.334368,-96.68807 -1.267954,-8.78905 -1.31097,-26.70114 -0.08325,-34.66744 3.546498,-23.01223 17.917048,-48.84647 48.761048,-87.65877 11.53559,-14.5157 20.91538,-25.78199 21.46492,-25.78199 0.56371,0 18.82898,22.90116 60.17208,75.44431 32.99219,41.92994 37.22288,47.16201 38.4637,47.56781 0.99565,0.32561 1.08057,0.23396 28.24914,-30.48866 23.36455,-26.42098 29.97068,-33.67986 30.65123,-33.67986 0.54163,0 9.72068,16.63678 12.71861,23.05214 18.93588,40.52134 14.21517,90.1426 -11.74444,123.45023 -5.96061,7.6478 -18.72017,19.61415 -26.22537,24.59505 -13.381,8.88043 -30.93732,16.16692 -47.61033,19.75995 -6.96442,1.50083 -8.66341,1.62018 -25.65735,1.80248 -15.55615,0.16686 -19.12407,0.0332 -24.56872,-0.92006 z"
     id="path77"
     inkscape:connector-curvature="0" />
</svg>
